{"title":"Shopkins Wild 2018 Movies 720p HDRip x264 5.1 with Sample ☻rDX☻","magnet":"magnet:?xt=urn:btih:a6087c60fafba4e247d691a7062d317cd7e4c4ab&dn=Shopkins+Wild+2018+Movies+720p+HDRip+x264+5.1+with+Sample+%E2%98%BBrDX%E2%98%BB&tr=udp%3A%2F%2Ftracker.leechers-paradise.org%3A6969&tr=udp%3A%2F%2Fzer0day.ch%3A1337&tr=udp%3A%2F%2Fopen.demonii.com%3A1337&tr=udp%3A%2F%2Ftracker.coppersurfer.tk%3A6969&tr=udp%3A%2F%2Fexodus.desync.com%3A6969","uploader":"basicssom","categoryP":"video","categoryS":"hd___movies","size":"1033692924","seeders":"1","leechers":"37","description":"Shopkins Wild 2018 Movies 720p HDRip x264 5.1 with Sample &#x263B;rDX&#x263B;\r\n\r\nSCREEN SHOTS &amp; POSTER:\r\n   <a href=\"\nhttp://iphonehosting.eu/2018/9/cheaper/index.html\" rel=\"nofollow\" target=\"_NEW\">\nhttp://iphonehosting.eu/2018/9/cheaper/index.html</a> <a href=\"\nhttp://iphonehosting.eu/2018/9/cheaper/1.html\" rel=\"nofollow\" target=\"_NEW\">\nhttp://iphonehosting.eu/2018/9/cheaper/1.html</a> <a href=\"\nhttp://iphonehosting.eu/2018/9/cheaper/2.html\" rel=\"nofollow\" target=\"_NEW\">\nhttp://iphonehosting.eu/2018/9/cheaper/2.html</a>   <a href=\"\nhttp://iphonehosting.eu/2018/9/cheaper/3.html\" rel=\"nofollow\" target=\"_NEW\">\nhttp://iphonehosting.eu/2018/9/cheaper/3.html</a>   <a href=\"\nhttp://iphonehosting.eu/2018/9/cheaper/4.html\" rel=\"nofollow\" target=\"_NEW\">\nhttp://iphonehosting.eu/2018/9/cheaper/4.html</a>   <a href=\"\nhttp://iphonehosting.eu/2018/9/cheaper/5.html\" rel=\"nofollow\" target=\"_NEW\">\nhttp://iphonehosting.eu/2018/9/cheaper/5.html</a>   <a href=\"\nhttp://iphonehosting.eu/2018/9/cheaper/6.html\" rel=\"nofollow\" target=\"_NEW\">\nhttp://iphonehosting.eu/2018/9/cheaper/6.html</a>   <a href=\"\nhttp://iphonehosting.eu/2018/9/cheaper/7.html\" rel=\"nofollow\" target=\"_NEW\">\nhttp://iphonehosting.eu/2018/9/cheaper/7.html</a>   <a href=\"\nhttp://iphonehosting.eu/2018/9/cheaper/8.html\" rel=\"nofollow\" target=\"_NEW\">\nhttp://iphonehosting.eu/2018/9/cheaper/8.html</a>   <a href=\"\nhttp://iphonehosting.eu/2018/9/cheaper/9.html\" rel=\"nofollow\" target=\"_NEW\">\nhttp://iphonehosting.eu/2018/9/cheaper/9.html</a>   <a href=\"\nhttp://iphonehosting.eu/2018/9/cheaper/10.html\" rel=\"nofollow\" target=\"_NEW\">\nhttp://iphonehosting.eu/2018/9/cheaper/10.html</a>\r\n\r\nFile size                                : 977 MiB\r\nDuration                                 : 1 h 14 min\r\nOverall bit rate mode                    : Constant\r\nOverall bit rate                         : 1 833 kb/s\r\n\r\nVideo\r\nID                                       : 2\r\nFormat                                   : AVC\r\nFormat/Info                              : Advanced Video Codec\r\nFormat profile                           : Main@L3.1\r\nFormat settings, CABAC                   : Yes\r\nFormat settings, ReFrames                : 2 frames\r\nFormat settings, GOP                     : M=1, N=25\r\nCodec ID                                 : V_MPEG4/ISO/AVC\r\nDuration                                 : 1 h 14 min\r\nBit rate mode                            : Constant\r\nBit rate                                 : 1 450 kb/s\r\nWidth                                    : 1 280 pixels\r\nHeight                                   : 718 pixels\r\nDisplay aspect ratio                     : 16:9\r\nFrame rate mode                          : Constant\r\nFrame rate                               : 29.970 (30000/1001) FPS\r\nColor space                              : YUV\r\nChroma subsampling                       : 4:2:0\r\nBit depth                                : 8 bits\r\nScan type                                : Progressive\r\nBits/(Pixel*Frame)                       : 0.053\r\nStream size                              : 753 MiB (77%)\r\nTitle                                    : &#x263B;rDX&#x263B;\r\nDefault                                  : Yes\r\nForced                                   : No\r\n\r\nAudio\r\nID                                       : 1\r\nFormat                                   : AC-3\r\nFormat/Info                              : Audio Coding 3\r\nMode extension                           : CM (complete main)\r\nFormat settings, Endianness              : Big\r\nCodec ID                                 : A_AC3\r\nDuration                                 : 1 h 14 min\r\nBit rate mode                            : Constant\r\nBit rate                                 : 384 kb/s\r\nChannel(s)                               : 6 channels\r\nChannel positions                        : Front: L C R, Side: L R, LFE\r\nSampling rate                            : 48.0 kHz\r\nFrame rate                               : 31.250 FPS (1536 spf)\r\nBit depth                                : 16 bits\r\nCompression mode                         : Lossy\r\nStream size                              : 205 MiB (21%)\r\nTitle                                    : &#x263B;rDX&#x263B;\r\nLanguage                                 : English\r\nDefault                                  : Yes\r\nForced                                   : No\r\n <a href=\"\nhttps://www.imdb.com/title/tt8059506/\" rel=\"nofollow\" target=\"_NEW\">\nhttps://www.imdb.com/title/tt8059506/</a>","last_updated":"2018-09-20T12:15:43.440Z","parsed":{"xt":"urn:btih:a6087c60fafba4e247d691a7062d317cd7e4c4ab","dn":"Shopkins Wild 2018 Movies 720p HDRip x264 5.1 with Sample ☻rDX☻","tr":["udp://exodus.desync.com:6969","udp://open.demonii.com:1337","udp://tracker.coppersurfer.tk:6969","udp://tracker.leechers-paradise.org:6969","udp://zer0day.ch:1337"],"infoHash":"a6087c60fafba4e247d691a7062d317cd7e4c4ab","infoHashBuffer":{"type":"Buffer","data":[166,8,124,96,250,251,164,226,71,214,145,167,6,45,49,124,215,228,196,171]},"name":"Shopkins Wild 2018 Movies 720p HDRip x264 5.1 with Sample ☻rDX☻","announce":["udp://exodus.desync.com:6969","udp://open.demonii.com:1337","udp://tracker.coppersurfer.tk:6969","udp://tracker.leechers-paradise.org:6969","udp://zer0day.ch:1337"],"urlList":[]}}